<?xml version="1.0" encoding="utf-8"?>
<!-- Generator: Adobe Illustrator 16.0.1, SVG Export Plug-In . SVG Version: 6.00 Build 0)  -->
<!DOCTYPE svg PUBLIC "-//W3C//DTD SVG 1.1//EN" "http://www.w3.org/Graphics/SVG/1.1/DTD/svg11.dtd">
<svg version="1.1" id="Слой_1" xmlns="http://www.w3.org/2000/svg" xmlns:xlink="http://www.w3.org/1999/xlink" x="0px" y="0px"
	 width="803px" height="50px" viewBox="0 0 803 50" enable-background="new 0 0 803 50" xml:space="preserve">
<pattern  width="40" height="103.99" patternUnits="userSpaceOnUse" id="Nueva_muestra_de_motivo_51" viewBox="0 -103.99 40 103.99" overflow="visible">
	<g>
		<polygon fill="none" points="0,0 40,0 40,-103.99 0,-103.99 		"/>
		<polygon fill="#221C1D" points="40,-103.99 20.039,-103.99 40,-69.415 		"/>
		<polygon fill="#221C1D" points="0,-103.99 0,-69.372 19.986,-103.99 		"/>
		<polygon fill="#FFFFFF" points="0,-69.327 0,-52.041 20.012,-86.703 40,-52.083 40,-69.37 20.012,-103.99 		"/>
		<polygon fill="#221C1D" points="0,-51.995 0,-17.378 20.012,-52.04 40,-17.42 40,-52.038 20.012,-86.658 		"/>
		<polygon fill="#FFFFFF" points="0,-17.332 0,-0.046 20.012,-34.708 40,-0.089 40,-17.375 20.012,-51.995 		"/>
		<polygon fill="#221C1D" points="0,0 0,0 40,0 40,-0.043 20.012,-34.663 		"/>
	</g>
</pattern>
<g>
	
		<pattern  id="SVGID_1_" xlink:href="#Nueva_muestra_de_motivo_51" patternTransform="matrix(0.8318 0 0 0.8318 -1347.9692 -1272.4683)">
	</pattern>
	<rect fill-rule="evenodd" clip-rule="evenodd" fill="url(#SVGID_1_)" width="227.927" height="50"/>
	
		<pattern  id="SVGID_2_" xlink:href="#Nueva_muestra_de_motivo_51" patternTransform="matrix(0.8318 0 0 0.8318 -1347.9692 -1272.4683)">
	</pattern>
	<rect fill-rule="evenodd" clip-rule="evenodd" fill="url(#SVGID_2_)" width="804.341" height="50"/>
</g>
</svg>
